<?xml version="1.0" encoding="utf-8" standalone="no"?>
<!DOCTYPE svg PUBLIC "-//W3C//DTD SVG 1.1//EN"
  "http://www.w3.org/Graphics/SVG/1.1/DTD/svg11.dtd">
<svg xmlns:xlink="http://www.w3.org/1999/xlink" width="422.826877pt" height="193.766531pt" viewBox="0 0 422.826877 193.766531" xmlns="http://www.w3.org/2000/svg" version="1.1">
 <metadata>
  <rdf:RDF xmlns:dc="http://purl.org/dc/elements/1.1/" xmlns:cc="http://creativecommons.org/ns#" xmlns:rdf="http://www.w3.org/1999/02/22-rdf-syntax-ns#">
   <cc:Work>
    <dc:type rdf:resource="http://purl.org/dc/dcmitype/StillImage"/>
    <dc:date>2026-07-24T14:16:16.866687</dc:date>
    <dc:format>image/svg+xml</dc:format>
    <dc:creator>
     <cc:Agent>
      <dc:title>Matplotlib v3.10.8, https://matplotlib.org/</dc:title>
     </cc:Agent>
    </dc:creator>
   </cc:Work>
  </rdf:RDF>
 </metadata>
 <defs>
  <style type="text/css">*{stroke-linejoin: round; stroke-linecap: butt}</style>
 </defs>
 <g id="figure_1">
  <g id="patch_1">
   <path d="M 0 193.766531 
L 422.826877 193.766531 
L 422.826877 0 
L 0 0 
z
" style="fill: #ffffff"/>
  </g>
  <g id="axes_1">
   <g id="patch_2">
    <path d="M 95.902164 169.210281 
L 391.606746 169.210281 
L 391.606746 21.558281 
L 95.902164 21.558281 
z
" style="fill: #ffffff"/>
   </g>
   <g id="matplotlib.axis_1">
    <g id="xtick_1">
     <g id="text_1">
      <!-- success -->
      <g style="fill: #262626" transform="translate(93.762031 184.789031) scale(0.08 -0.08)">
       <defs>
        <path id="DejaVuSerif-73" d="M 359 184 
L 359 959 
L 691 959 
Q 703 588 923 403 
Q 1144 219 1575 219 
Q 1963 219 2166 364 
Q 2369 509 2369 788 
Q 2369 1006 2220 1140 
Q 2072 1275 1594 1428 
L 1178 1569 
Q 750 1706 558 1912 
Q 366 2119 366 2438 
Q 366 2894 700 3153 
Q 1034 3413 1625 3413 
Q 1888 3413 2178 3344 
Q 2469 3275 2778 3144 
L 2778 2419 
L 2447 2419 
Q 2434 2741 2221 2922 
Q 2009 3103 1644 3103 
Q 1281 3103 1095 2975 
Q 909 2847 909 2591 
Q 909 2381 1050 2254 
Q 1191 2128 1613 1997 
L 2069 1856 
Q 2541 1709 2748 1489 
Q 2956 1269 2956 922 
Q 2956 450 2595 179 
Q 2234 -91 1600 -91 
Q 1278 -91 972 -22 
Q 666 47 359 184 
z
" transform="scale(0.015625)"/>
        <path id="DejaVuSerif-75" d="M 2266 3322 
L 3341 3322 
L 3341 331 
L 3884 331 
L 3884 0 
L 2766 0 
L 2766 588 
Q 2606 256 2353 82 
Q 2100 -91 1766 -91 
Q 1213 -91 952 223 
Q 691 538 691 1209 
L 691 2988 
L 172 2988 
L 172 3322 
L 1269 3322 
L 1269 1388 
Q 1269 781 1417 556 
Q 1566 331 1947 331 
Q 2347 331 2556 625 
Q 2766 919 2766 1478 
L 2766 2988 
L 2266 2988 
L 2266 3322 
z
" transform="scale(0.015625)"/>
        <path id="DejaVuSerif-63" d="M 3291 997 
Q 3169 466 2822 187 
Q 2475 -91 1925 -91 
Q 1200 -91 759 389 
Q 319 869 319 1663 
Q 319 2459 759 2936 
Q 1200 3413 1925 3413 
Q 2241 3413 2553 3339 
Q 2866 3266 3181 3116 
L 3181 2266 
L 2847 2266 
Q 2781 2703 2561 2903 
Q 2341 3103 1931 3103 
Q 1466 3103 1228 2742 
Q 991 2381 991 1663 
Q 991 944 1227 581 
Q 1463 219 1931 219 
Q 2303 219 2525 412 
Q 2747 606 2828 997 
L 3291 997 
z
" transform="scale(0.015625)"/>
        <path id="DejaVuSerif-65" d="M 3469 1600 
L 991 1600 
L 991 1575 
Q 991 903 1244 561 
Q 1497 219 1991 219 
Q 2369 219 2611 417 
Q 2853 616 2950 1006 
L 3413 1006 
Q 3275 459 2904 184 
Q 2534 -91 1931 -91 
Q 1203 -91 761 389 
Q 319 869 319 1663 
Q 319 2450 753 2931 
Q 1188 3413 1894 3413 
Q 2647 3413 3050 2948 
Q 3453 2484 3469 1600 
z
M 2791 1931 
Q 2772 2513 2545 2808 
Q 2319 3103 1894 3103 
Q 1497 3103 1269 2806 
Q 1041 2509 991 1931 
L 2791 1931 
z
" transform="scale(0.015625)"/>
       </defs>
       <use xlink:href="#DejaVuSerif-73"/>
       <use xlink:href="#DejaVuSerif-75" transform="translate(51.318359 0)"/>
       <use xlink:href="#DejaVuSerif-63" transform="translate(115.722656 0)"/>
       <use xlink:href="#DejaVuSerif-63" transform="translate(171.728516 0)"/>
       <use xlink:href="#DejaVuSerif-65" transform="translate(227.734375 0)"/>
       <use xlink:href="#DejaVuSerif-73" transform="translate(286.914062 0)"/>
       <use xlink:href="#DejaVuSerif-73" transform="translate(338.232422 0)"/>
      </g>
     </g>
    </g>
    <g id="xtick_2">
     <g id="text_2">
      <!-- reliability -->
      <g style="fill: #262626" transform="translate(358.676253 184.789031) scale(0.08 -0.08)">
       <defs>
        <path id="DejaVuSerif-72" d="M 3059 3328 
L 3059 2497 
L 2728 2497 
Q 2713 2744 2591 2866 
Q 2469 2988 2234 2988 
Q 1809 2988 1582 2694 
Q 1356 2400 1356 1850 
L 1356 331 
L 2022 331 
L 2022 0 
L 263 0 
L 263 331 
L 781 331 
L 781 2994 
L 231 2994 
L 231 3322 
L 1356 3322 
L 1356 2731 
Q 1525 3078 1790 3245 
Q 2056 3413 2438 3413 
Q 2578 3413 2733 3391 
Q 2888 3369 3059 3328 
z
" transform="scale(0.015625)"/>
        <path id="DejaVuSerif-6c" d="M 1313 331 
L 1856 331 
L 1856 0 
L 184 0 
L 184 331 
L 738 331 
L 738 4531 
L 184 4531 
L 184 4863 
L 1313 4863 
L 1313 331 
z
" transform="scale(0.015625)"/>
        <path id="DejaVuSerif-69" d="M 622 4353 
Q 622 4497 726 4603 
Q 831 4709 978 4709 
Q 1122 4709 1226 4603 
Q 1331 4497 1331 4353 
Q 1331 4206 1228 4103 
Q 1125 4000 978 4000 
Q 831 4000 726 4103 
Q 622 4206 622 4353 
z
M 1356 331 
L 1900 331 
L 1900 0 
L 231 0 
L 231 331 
L 781 331 
L 781 2988 
L 231 2988 
L 231 3322 
L 1356 3322 
L 1356 331 
z
" transform="scale(0.015625)"/>
        <path id="DejaVuSerif-61" d="M 2547 1044 
L 2547 1747 
L 1806 1747 
Q 1378 1747 1168 1562 
Q 959 1378 959 997 
Q 959 650 1171 447 
Q 1384 244 1747 244 
Q 2106 244 2326 466 
Q 2547 688 2547 1044 
z
M 3122 2075 
L 3122 331 
L 3634 331 
L 3634 0 
L 2547 0 
L 2547 359 
Q 2356 128 2106 18 
Q 1856 -91 1522 -91 
Q 969 -91 644 203 
Q 319 497 319 997 
Q 319 1513 691 1797 
Q 1063 2081 1741 2081 
L 2547 2081 
L 2547 2309 
Q 2547 2688 2317 2895 
Q 2088 3103 1672 3103 
Q 1328 3103 1125 2947 
Q 922 2791 872 2484 
L 575 2484 
L 575 3156 
Q 875 3284 1158 3348 
Q 1441 3413 1709 3413 
Q 2400 3413 2761 3070 
Q 3122 2728 3122 2075 
z
" transform="scale(0.015625)"/>
        <path id="DejaVuSerif-62" d="M 738 331 
L 738 4531 
L 184 4531 
L 184 4863 
L 1313 4863 
L 1313 2803 
Q 1481 3116 1742 3264 
Q 2003 3413 2388 3413 
Q 3000 3413 3387 2928 
Q 3775 2444 3775 1663 
Q 3775 881 3387 395 
Q 3000 -91 2388 -91 
Q 2003 -91 1742 57 
Q 1481 206 1313 519 
L 1313 0 
L 184 0 
L 184 331 
L 738 331 
z
M 1313 1497 
Q 1313 897 1542 583 
Q 1772 269 2209 269 
Q 2650 269 2876 622 
Q 3103 975 3103 1663 
Q 3103 2353 2876 2703 
Q 2650 3053 2209 3053 
Q 1772 3053 1542 2737 
Q 1313 2422 1313 1825 
L 1313 1497 
z
" transform="scale(0.015625)"/>
        <path id="DejaVuSerif-74" d="M 691 2988 
L 184 2988 
L 184 3322 
L 691 3322 
L 691 4353 
L 1269 4353 
L 1269 3322 
L 2350 3322 
L 2350 2988 
L 1269 2988 
L 1269 878 
Q 1269 456 1350 337 
Q 1431 219 1650 219 
Q 1875 219 1978 351 
Q 2081 484 2088 781 
L 2522 781 
Q 2497 328 2275 118 
Q 2053 -91 1600 -91 
Q 1103 -91 897 129 
Q 691 350 691 878 
L 691 2988 
z
" transform="scale(0.015625)"/>
        <path id="DejaVuSerif-79" d="M 1381 -609 
L 1600 -56 
L 359 2988 
L -19 2988 
L -19 3322 
L 1509 3322 
L 1509 2988 
L 978 2988 
L 1913 703 
L 2847 2988 
L 2350 2988 
L 2350 3322 
L 3597 3322 
L 3597 2988 
L 3225 2988 
L 1703 -750 
Q 1547 -1138 1356 -1280 
Q 1166 -1422 819 -1422 
Q 672 -1422 517 -1397 
Q 363 -1372 206 -1325 
L 206 -691 
L 500 -691 
Q 519 -903 608 -995 
Q 697 -1088 884 -1088 
Q 1056 -1088 1161 -992 
Q 1266 -897 1381 -609 
z
" transform="scale(0.015625)"/>
       </defs>
       <use xlink:href="#DejaVuSerif-72"/>
       <use xlink:href="#DejaVuSerif-65" transform="translate(47.802734 0)"/>
       <use xlink:href="#DejaVuSerif-6c" transform="translate(106.982422 0)"/>
       <use xlink:href="#DejaVuSerif-69" transform="translate(138.964844 0)"/>
       <use xlink:href="#DejaVuSerif-61" transform="translate(170.947266 0)"/>
       <use xlink:href="#DejaVuSerif-62" transform="translate(230.566406 0)"/>
       <use xlink:href="#DejaVuSerif-69" transform="translate(294.580078 0)"/>
       <use xlink:href="#DejaVuSerif-6c" transform="translate(326.5625 0)"/>
       <use xlink:href="#DejaVuSerif-69" transform="translate(358.544922 0)"/>
       <use xlink:href="#DejaVuSerif-74" transform="translate(390.527344 0)"/>
       <use xlink:href="#DejaVuSerif-79" transform="translate(430.712891 0)"/>
      </g>
     </g>
    </g>
   </g>
   <g id="matplotlib.axis_2">
    <g id="ytick_1">
     <g id="line2d_1">
      <path d="M 95.902164 28.269736 
L 391.606746 28.269736 
" clip-path="url(#p51de1954bc)" style="fill: none; stroke: #cccccc; stroke-opacity: 0.3; stroke-linecap: round"/>
     </g>
     <g id="text_3">
      <!-- 1 -->
      <g style="fill: #262626" transform="translate(80.103289 32.030962) scale(0.099 -0.099)">
       <defs>
        <path id="DejaVuSerif-31" d="M 909 0 
L 909 331 
L 1722 331 
L 1722 4213 
L 781 3603 
L 781 4013 
L 1919 4750 
L 2350 4750 
L 2350 331 
L 3163 331 
L 3163 0 
L 909 0 
z
" transform="scale(0.015625)"/>
       </defs>
       <use xlink:href="#DejaVuSerif-31"/>
      </g>
     </g>
    </g>
    <g id="ytick_2">
     <g id="line2d_2">
      <path d="M 95.902164 55.115554 
L 391.606746 55.115554 
" clip-path="url(#p51de1954bc)" style="fill: none; stroke: #cccccc; stroke-opacity: 0.3; stroke-linecap: round"/>
     </g>
     <g id="text_4">
      <!-- 2 -->
      <g style="fill: #262626" transform="translate(80.103289 58.876781) scale(0.099 -0.099)">
       <defs>
        <path id="DejaVuSerif-32" d="M 819 3553 
L 469 3553 
L 469 4384 
Q 803 4563 1142 4656 
Q 1481 4750 1806 4750 
Q 2534 4750 2956 4397 
Q 3378 4044 3378 3438 
Q 3378 2753 2422 1800 
Q 2347 1728 2309 1691 
L 1131 513 
L 3078 513 
L 3078 1088 
L 3444 1088 
L 3444 0 
L 434 0 
L 434 341 
L 1850 1753 
Q 2319 2222 2519 2614 
Q 2719 3006 2719 3438 
Q 2719 3909 2473 4175 
Q 2228 4441 1797 4441 
Q 1350 4441 1106 4219 
Q 863 3997 819 3553 
z
" transform="scale(0.015625)"/>
       </defs>
       <use xlink:href="#DejaVuSerif-32"/>
      </g>
     </g>
    </g>
    <g id="ytick_3">
     <g id="line2d_3">
      <path d="M 95.902164 81.961372 
L 391.606746 81.961372 
" clip-path="url(#p51de1954bc)" style="fill: none; stroke: #cccccc; stroke-opacity: 0.3; stroke-linecap: round"/>
     </g>
     <g id="text_5">
      <!-- 3 -->
      <g style="fill: #262626" transform="translate(80.103289 85.722599) scale(0.099 -0.099)">
       <defs>
        <path id="DejaVuSerif-33" d="M 622 4469 
Q 988 4606 1323 4678 
Q 1659 4750 1953 4750 
Q 2638 4750 3022 4454 
Q 3406 4159 3406 3634 
Q 3406 3213 3140 2930 
Q 2875 2647 2388 2547 
Q 2963 2466 3280 2130 
Q 3597 1794 3597 1259 
Q 3597 606 3158 257 
Q 2719 -91 1894 -91 
Q 1528 -91 1179 -12 
Q 831 66 488 225 
L 488 1131 
L 838 1131 
Q 869 681 1141 450 
Q 1413 219 1906 219 
Q 2384 219 2661 495 
Q 2938 772 2938 1253 
Q 2938 1803 2653 2086 
Q 2369 2369 1819 2369 
L 1522 2369 
L 1522 2688 
L 1678 2688 
Q 2225 2688 2498 2914 
Q 2772 3141 2772 3597 
Q 2772 4006 2547 4223 
Q 2322 4441 1900 4441 
Q 1478 4441 1245 4241 
Q 1013 4041 972 3647 
L 622 3647 
L 622 4469 
z
" transform="scale(0.015625)"/>
       </defs>
       <use xlink:href="#DejaVuSerif-33"/>
      </g>
     </g>
    </g>
    <g id="ytick_4">
     <g id="line2d_4">
      <path d="M 95.902164 108.80719 
L 391.606746 108.80719 
" clip-path="url(#p51de1954bc)" style="fill: none; stroke: #cccccc; stroke-opacity: 0.3; stroke-linecap: round"/>
     </g>
     <g id="text_6">
      <!-- 4 -->
      <g style="fill: #262626" transform="translate(80.103289 112.568417) scale(0.099 -0.099)">
       <defs>
        <path id="DejaVuSerif-34" d="M 2234 1581 
L 2234 4063 
L 641 1581 
L 2234 1581 
z
M 3609 0 
L 1484 0 
L 1484 331 
L 2234 331 
L 2234 1247 
L 197 1247 
L 197 1588 
L 2241 4750 
L 2859 4750 
L 2859 1581 
L 3750 1581 
L 3750 1247 
L 2859 1247 
L 2859 331 
L 3609 331 
L 3609 0 
z
" transform="scale(0.015625)"/>
       </defs>
       <use xlink:href="#DejaVuSerif-34"/>
      </g>
     </g>
    </g>
    <g id="ytick_5">
     <g id="line2d_5">
      <path d="M 95.902164 135.653009 
L 391.606746 135.653009 
" clip-path="url(#p51de1954bc)" style="fill: none; stroke: #cccccc; stroke-opacity: 0.3; stroke-linecap: round"/>
     </g>
     <g id="text_7">
      <!-- 5 -->
      <g style="fill: #262626" transform="translate(80.103289 139.414235) scale(0.099 -0.099)">
       <defs>
        <path id="DejaVuSerif-35" d="M 3219 4666 
L 3219 4153 
L 1081 4153 
L 1081 2816 
Q 1244 2928 1461 2984 
Q 1678 3041 1947 3041 
Q 2703 3041 3140 2622 
Q 3578 2203 3578 1478 
Q 3578 738 3136 323 
Q 2694 -91 1894 -91 
Q 1572 -91 1234 -12 
Q 897 66 544 225 
L 544 1131 
L 897 1131 
Q 925 688 1179 453 
Q 1434 219 1894 219 
Q 2388 219 2653 544 
Q 2919 869 2919 1478 
Q 2919 2084 2655 2407 
Q 2391 2731 1894 2731 
Q 1613 2731 1398 2631 
Q 1184 2531 1019 2322 
L 750 2322 
L 750 4666 
L 3219 4666 
z
" transform="scale(0.015625)"/>
       </defs>
       <use xlink:href="#DejaVuSerif-35"/>
      </g>
     </g>
    </g>
    <g id="ytick_6">
     <g id="line2d_6">
      <path d="M 95.902164 162.498827 
L 391.606746 162.498827 
" clip-path="url(#p51de1954bc)" style="fill: none; stroke: #cccccc; stroke-opacity: 0.3; stroke-linecap: round"/>
     </g>
     <g id="text_8">
      <!-- 6 -->
      <g style="fill: #262626" transform="translate(80.103289 166.260053) scale(0.099 -0.099)">
       <defs>
        <path id="DejaVuSerif-36" d="M 2094 219 
Q 2534 219 2771 542 
Q 3009 866 3009 1472 
Q 3009 2078 2771 2401 
Q 2534 2725 2094 2725 
Q 1647 2725 1412 2412 
Q 1178 2100 1178 1509 
Q 1178 888 1415 553 
Q 1653 219 2094 219 
z
M 1075 2569 
Q 1288 2803 1556 2918 
Q 1825 3034 2163 3034 
Q 2859 3034 3264 2615 
Q 3669 2197 3669 1472 
Q 3669 763 3233 336 
Q 2797 -91 2069 -91 
Q 1278 -91 853 498 
Q 428 1088 428 2181 
Q 428 3406 931 4078 
Q 1434 4750 2350 4750 
Q 2597 4750 2869 4703 
Q 3141 4656 3425 4563 
L 3425 3794 
L 3072 3794 
Q 3034 4109 2831 4275 
Q 2628 4441 2284 4441 
Q 1678 4441 1381 3981 
Q 1084 3522 1075 2569 
z
" transform="scale(0.015625)"/>
       </defs>
       <use xlink:href="#DejaVuSerif-36"/>
      </g>
     </g>
    </g>
    <g id="text_9">
     <!-- Rank (1 = best) -->
     <g style="fill: #262626" transform="translate(74.23157 131.279516) rotate(-90) scale(0.09 -0.09)">
      <defs>
       <path id="DejaVuSerif-52" d="M 3066 2316 
Q 3284 2256 3442 2114 
Q 3600 1972 3725 1716 
L 4403 331 
L 4972 331 
L 4972 0 
L 3872 0 
L 3144 1484 
Q 2934 1916 2759 2042 
Q 2584 2169 2278 2169 
L 1581 2169 
L 1581 331 
L 2241 331 
L 2241 0 
L 353 0 
L 353 331 
L 947 331 
L 947 4331 
L 353 4331 
L 353 4666 
L 2719 4666 
Q 3400 4666 3770 4341 
Q 4141 4016 4141 3419 
Q 4141 2938 3870 2661 
Q 3600 2384 3066 2316 
z
M 1581 2503 
L 2503 2503 
Q 2975 2503 3200 2726 
Q 3425 2950 3425 3419 
Q 3425 3888 3200 4109 
Q 2975 4331 2503 4331 
L 1581 4331 
L 1581 2503 
z
" transform="scale(0.015625)"/>
       <path id="DejaVuSerif-6e" d="M 263 0 
L 263 331 
L 781 331 
L 781 2988 
L 231 2988 
L 231 3322 
L 1356 3322 
L 1356 2731 
Q 1516 3069 1770 3241 
Q 2025 3413 2363 3413 
Q 2913 3413 3172 3097 
Q 3431 2781 3431 2113 
L 3431 331 
L 3944 331 
L 3944 0 
L 2356 0 
L 2356 331 
L 2853 331 
L 2853 1931 
Q 2853 2541 2703 2767 
Q 2553 2994 2175 2994 
Q 1775 2994 1565 2701 
Q 1356 2409 1356 1850 
L 1356 331 
L 1856 331 
L 1856 0 
L 263 0 
z
" transform="scale(0.015625)"/>
       <path id="DejaVuSerif-6b" d="M 1831 0 
L 219 0 
L 219 331 
L 738 331 
L 738 4531 
L 184 4531 
L 184 4863 
L 1313 4863 
L 1313 1697 
L 2713 2988 
L 2234 2988 
L 2234 3322 
L 3738 3322 
L 3738 2988 
L 3169 2988 
L 2181 2075 
L 3444 331 
L 3922 331 
L 3922 0 
L 2284 0 
L 2284 331 
L 2759 331 
L 1766 1697 
L 1313 1275 
L 1313 331 
L 1831 331 
L 1831 0 
z
" transform="scale(0.015625)"/>
       <path id="DejaVuSerif-20" transform="scale(0.015625)"/>
       <path id="DejaVuSerif-28" d="M 2041 -997 
Q 1281 -656 893 83 
Q 506 822 506 1931 
Q 506 3044 893 3783 
Q 1281 4522 2041 4863 
L 2041 4556 
Q 1559 4225 1350 3623 
Q 1141 3022 1141 1931 
Q 1141 844 1350 242 
Q 1559 -359 2041 -691 
L 2041 -997 
z
" transform="scale(0.015625)"/>
       <path id="DejaVuSerif-3d" d="M 678 2894 
L 4684 2894 
L 4684 2394 
L 678 2394 
L 678 2894 
z
M 678 1619 
L 4684 1619 
L 4684 1119 
L 678 1119 
L 678 1619 
z
" transform="scale(0.015625)"/>
       <path id="DejaVuSerif-29" d="M 453 -997 
L 453 -691 
Q 934 -359 1145 242 
Q 1356 844 1356 1931 
Q 1356 3022 1145 3623 
Q 934 4225 453 4556 
L 453 4863 
Q 1216 4522 1603 3783 
Q 1991 3044 1991 1931 
Q 1991 822 1603 83 
Q 1216 -656 453 -997 
z
" transform="scale(0.015625)"/>
      </defs>
      <use xlink:href="#DejaVuSerif-52"/>
      <use xlink:href="#DejaVuSerif-61" transform="translate(77.542969 0)"/>
      <use xlink:href="#DejaVuSerif-6e" transform="translate(137.162109 0)"/>
      <use xlink:href="#DejaVuSerif-6b" transform="translate(201.566406 0)"/>
      <use xlink:href="#DejaVuSerif-20" transform="translate(262.162109 0)"/>
      <use xlink:href="#DejaVuSerif-28" transform="translate(293.949219 0)"/>
      <use xlink:href="#DejaVuSerif-31" transform="translate(332.962891 0)"/>
      <use xlink:href="#DejaVuSerif-20" transform="translate(396.585938 0)"/>
      <use xlink:href="#DejaVuSerif-3d" transform="translate(428.373047 0)"/>
      <use xlink:href="#DejaVuSerif-20" transform="translate(512.162109 0)"/>
      <use xlink:href="#DejaVuSerif-62" transform="translate(543.949219 0)"/>
      <use xlink:href="#DejaVuSerif-65" transform="translate(607.962891 0)"/>
      <use xlink:href="#DejaVuSerif-73" transform="translate(667.142578 0)"/>
      <use xlink:href="#DejaVuSerif-74" transform="translate(718.460938 0)"/>
      <use xlink:href="#DejaVuSerif-29" transform="translate(758.646484 0)"/>
     </g>
    </g>
   </g>
   <g id="patch_3">
    <path d="M 95.902164 169.210281 
L 95.902164 21.558281 
" style="fill: none; stroke: #cccccc; stroke-width: 1.25; stroke-linejoin: miter; stroke-linecap: square"/>
   </g>
   <g id="patch_4">
    <path d="M 95.902164 169.210281 
L 391.606746 169.210281 
" style="fill: none; stroke: #cccccc; stroke-width: 1.25; stroke-linejoin: miter; stroke-linecap: square"/>
   </g>
   <g id="line2d_7">
    <path d="M 109.343281 108.80719 
L 378.165628 135.653009 
" clip-path="url(#p51de1954bc)" style="fill: none; stroke: #0072b2; stroke-width: 1.2; stroke-linecap: round"/>
    <defs>
     <path id="m4269da3f49" d="M 0 2.5 
C 0.663008 2.5 1.29895 2.236584 1.767767 1.767767 
C 2.236584 1.29895 2.5 0.663008 2.5 0 
C 2.5 -0.663008 2.236584 -1.29895 1.767767 -1.767767 
C 1.29895 -2.236584 0.663008 -2.5 0 -2.5 
C -0.663008 -2.5 -1.29895 -2.236584 -1.767767 -1.767767 
C -2.236584 -1.29895 -2.5 -0.663008 -2.5 0 
C -2.5 0.663008 -2.236584 1.29895 -1.767767 1.767767 
C -1.29895 2.236584 -0.663008 2.5 0 2.5 
z
" style="stroke: #0072b2"/>
    </defs>
    <g clip-path="url(#p51de1954bc)">
     <use xlink:href="#m4269da3f49" x="109.343281" y="108.80719" style="fill: #0072b2; stroke: #0072b2"/>
     <use xlink:href="#m4269da3f49" x="378.165628" y="135.653009" style="fill: #0072b2; stroke: #0072b2"/>
    </g>
   </g>
   <g id="text_10">
    <!-- Gemma-2-9B (Ollama) -->
    <g style="fill: #0072b2" transform="translate(26.486094 108.80719) scale(0.07 -0.07)">
     <defs>
      <path id="DejaVuSerif-47" d="M 4097 3272 
Q 3988 3856 3641 4136 
Q 3294 4416 2675 4416 
Q 1869 4416 1472 3897 
Q 1075 3378 1075 2328 
Q 1075 1300 1484 772 
Q 1894 244 2688 244 
Q 3041 244 3362 331 
Q 3684 419 3975 594 
L 3975 1797 
L 3097 1797 
L 3097 2131 
L 4609 2131 
L 4609 391 
Q 4194 150 3714 29 
Q 3234 -91 2688 -91 
Q 1631 -91 995 570 
Q 359 1231 359 2328 
Q 359 3434 996 4092 
Q 1634 4750 2713 4750 
Q 3113 4750 3539 4658 
Q 3966 4566 4447 4378 
L 4447 3272 
L 4097 3272 
z
" transform="scale(0.015625)"/>
      <path id="DejaVuSerif-6d" d="M 3316 2675 
Q 3481 3041 3739 3227 
Q 3997 3413 4341 3413 
Q 4863 3413 5119 3089 
Q 5375 2766 5375 2113 
L 5375 331 
L 5894 331 
L 5894 0 
L 4300 0 
L 4300 331 
L 4800 331 
L 4800 2047 
Q 4800 2556 4650 2772 
Q 4500 2988 4153 2988 
Q 3769 2988 3567 2697 
Q 3366 2406 3366 1850 
L 3366 331 
L 3866 331 
L 3866 0 
L 2291 0 
L 2291 331 
L 2791 331 
L 2791 2069 
Q 2791 2566 2641 2777 
Q 2491 2988 2144 2988 
Q 1759 2988 1557 2697 
Q 1356 2406 1356 1850 
L 1356 331 
L 1856 331 
L 1856 0 
L 263 0 
L 263 331 
L 781 331 
L 781 2994 
L 231 2994 
L 231 3322 
L 1356 3322 
L 1356 2731 
Q 1516 3063 1762 3238 
Q 2009 3413 2322 3413 
Q 2709 3413 2968 3220 
Q 3228 3028 3316 2675 
z
" transform="scale(0.015625)"/>
      <path id="DejaVuSerif-2d" d="M 281 1959 
L 1881 1959 
L 1881 1472 
L 281 1472 
L 281 1959 
z
" transform="scale(0.015625)"/>
      <path id="DejaVuSerif-39" d="M 2994 2091 
Q 2784 1856 2512 1740 
Q 2241 1625 1900 1625 
Q 1206 1625 804 2044 
Q 403 2463 403 3188 
Q 403 3897 839 4323 
Q 1275 4750 2003 4750 
Q 2794 4750 3217 4161 
Q 3641 3572 3641 2478 
Q 3641 1253 3137 581 
Q 2634 -91 1722 -91 
Q 1475 -91 1203 -44 
Q 931 3 647 97 
L 647 872 
L 997 872 
Q 1038 556 1241 387 
Q 1444 219 1784 219 
Q 2391 219 2687 676 
Q 2984 1134 2994 2091 
z
M 1978 4441 
Q 1534 4441 1298 4117 
Q 1063 3794 1063 3188 
Q 1063 2581 1298 2256 
Q 1534 1931 1978 1931 
Q 2422 1931 2658 2245 
Q 2894 2559 2894 3150 
Q 2894 3772 2656 4106 
Q 2419 4441 1978 4441 
z
" transform="scale(0.015625)"/>
      <path id="DejaVuSerif-42" d="M 1581 331 
L 2516 331 
Q 3078 331 3337 575 
Q 3597 819 3597 1350 
Q 3597 1878 3339 2120 
Q 3081 2363 2516 2363 
L 1581 2363 
L 1581 331 
z
M 1581 2694 
L 2375 2694 
Q 2888 2694 3123 2891 
Q 3359 3088 3359 3513 
Q 3359 3941 3123 4136 
Q 2888 4331 2375 4331 
L 1581 4331 
L 1581 2694 
z
M 353 0 
L 353 331 
L 947 331 
L 947 4331 
L 353 4331 
L 353 4666 
L 2656 4666 
Q 3363 4666 3720 4377 
Q 4078 4088 4078 3513 
Q 4078 3097 3829 2850 
Q 3581 2603 3103 2547 
Q 3697 2472 4005 2167 
Q 4313 1863 4313 1350 
Q 4313 656 3875 328 
Q 3438 0 2509 0 
L 353 0 
z
" transform="scale(0.015625)"/>
      <path id="DejaVuSerif-4f" d="M 2625 244 
Q 3391 244 3781 770 
Q 4172 1297 4172 2328 
Q 4172 3363 3781 3889 
Q 3391 4416 2625 4416 
Q 1856 4416 1465 3889 
Q 1075 3363 1075 2328 
Q 1075 1297 1465 770 
Q 1856 244 2625 244 
z
M 2625 -91 
Q 2150 -91 1751 65 
Q 1353 222 1050 525 
Q 700 875 529 1319 
Q 359 1763 359 2328 
Q 359 2894 529 3339 
Q 700 3784 1050 4134 
Q 1356 4441 1750 4595 
Q 2144 4750 2625 4750 
Q 3641 4750 4266 4084 
Q 4891 3419 4891 2328 
Q 4891 1769 4719 1320 
Q 4547 872 4197 525 
Q 3891 219 3497 64 
Q 3103 -91 2625 -91 
z
" transform="scale(0.015625)"/>
     </defs>
     <use xlink:href="#DejaVuSerif-47"/>
     <use xlink:href="#DejaVuSerif-65" transform="translate(79.882812 0)"/>
     <use xlink:href="#DejaVuSerif-6d" transform="translate(139.0625 0)"/>
     <use xlink:href="#DejaVuSerif-6d" transform="translate(233.886719 0)"/>
     <use xlink:href="#DejaVuSerif-61" transform="translate(328.710938 0)"/>
     <use xlink:href="#DejaVuSerif-2d" transform="translate(388.330078 0)"/>
     <use xlink:href="#DejaVuSerif-32" transform="translate(422.119141 0)"/>
     <use xlink:href="#DejaVuSerif-2d" transform="translate(485.742188 0)"/>
     <use xlink:href="#DejaVuSerif-39" transform="translate(519.53125 0)"/>
     <use xlink:href="#DejaVuSerif-42" transform="translate(583.154297 0)"/>
     <use xlink:href="#DejaVuSerif-20" transform="translate(656.640625 0)"/>
     <use xlink:href="#DejaVuSerif-28" transform="translate(688.427734 0)"/>
     <use xlink:href="#DejaVuSerif-4f" transform="translate(727.441406 0)"/>
     <use xlink:href="#DejaVuSerif-6c" transform="translate(809.423828 0)"/>
     <use xlink:href="#DejaVuSerif-6c" transform="translate(841.40625 0)"/>
     <use xlink:href="#DejaVuSerif-61" transform="translate(873.388672 0)"/>
     <use xlink:href="#DejaVuSerif-6d" transform="translate(933.007812 0)"/>
     <use xlink:href="#DejaVuSerif-61" transform="translate(1027.832031 0)"/>
     <use xlink:href="#DejaVuSerif-29" transform="translate(1087.451172 0)"/>
    </g>
   </g>
   <g id="line2d_8">
    <path d="M 109.343281 28.269736 
L 378.165628 28.269736 
" clip-path="url(#p51de1954bc)" style="fill: none; stroke: #e69f00; stroke-width: 1.2; stroke-linecap: round"/>
    <defs>
     <path id="m3ba1707f78" d="M 0 2.5 
C 0.663008 2.5 1.29895 2.236584 1.767767 1.767767 
C 2.236584 1.29895 2.5 0.663008 2.5 0 
C 2.5 -0.663008 2.236584 -1.29895 1.767767 -1.767767 
C 1.29895 -2.236584 0.663008 -2.5 0 -2.5 
C -0.663008 -2.5 -1.29895 -2.236584 -1.767767 -1.767767 
C -2.236584 -1.29895 -2.5 -0.663008 -2.5 0 
C -2.5 0.663008 -2.236584 1.29895 -1.767767 1.767767 
C -1.29895 2.236584 -0.663008 2.5 0 2.5 
z
" style="stroke: #e69f00"/>
    </defs>
    <g clip-path="url(#p51de1954bc)">
     <use xlink:href="#m3ba1707f78" x="109.343281" y="28.269736" style="fill: #e69f00; stroke: #e69f00"/>
     <use xlink:href="#m3ba1707f78" x="378.165628" y="28.269736" style="fill: #e69f00; stroke: #e69f00"/>
    </g>
   </g>
   <g id="text_11">
    <!-- Llama-3.1-8B (Ollama) -->
    <g style="fill: #e69f00" transform="translate(25.12 28.269736) scale(0.07 -0.07)">
     <defs>
      <path id="DejaVuSerif-4c" d="M 353 0 
L 353 331 
L 947 331 
L 947 4331 
L 353 4331 
L 353 4666 
L 2175 4666 
L 2175 4331 
L 1581 4331 
L 1581 384 
L 3713 384 
L 3713 1166 
L 4097 1166 
L 4097 0 
L 353 0 
z
" transform="scale(0.015625)"/>
      <path id="DejaVuSerif-2e" d="M 603 325 
Q 603 500 722 622 
Q 841 744 1019 744 
Q 1191 744 1312 622 
Q 1434 500 1434 325 
Q 1434 153 1312 31 
Q 1191 -91 1019 -91 
Q 841 -91 722 29 
Q 603 150 603 325 
z
" transform="scale(0.015625)"/>
      <path id="DejaVuSerif-38" d="M 2981 1275 
Q 2981 1775 2732 2051 
Q 2484 2328 2034 2328 
Q 1584 2328 1336 2051 
Q 1088 1775 1088 1275 
Q 1088 772 1336 495 
Q 1584 219 2034 219 
Q 2484 219 2732 495 
Q 2981 772 2981 1275 
z
M 2853 3541 
Q 2853 3966 2637 4203 
Q 2422 4441 2034 4441 
Q 1650 4441 1433 4203 
Q 1216 3966 1216 3541 
Q 1216 3113 1433 2875 
Q 1650 2638 2034 2638 
Q 2422 2638 2637 2875 
Q 2853 3113 2853 3541 
z
M 2516 2484 
Q 3047 2413 3344 2092 
Q 3641 1772 3641 1275 
Q 3641 619 3225 264 
Q 2809 -91 2034 -91 
Q 1263 -91 845 264 
Q 428 619 428 1275 
Q 428 1772 725 2092 
Q 1022 2413 1556 2484 
Q 1084 2569 832 2842 
Q 581 3116 581 3541 
Q 581 4103 968 4426 
Q 1356 4750 2034 4750 
Q 2713 4750 3100 4426 
Q 3488 4103 3488 3541 
Q 3488 3116 3236 2842 
Q 2984 2569 2516 2484 
z
" transform="scale(0.015625)"/>
     </defs>
     <use xlink:href="#DejaVuSerif-4c"/>
     <use xlink:href="#DejaVuSerif-6c" transform="translate(66.40625 0)"/>
     <use xlink:href="#DejaVuSerif-61" transform="translate(98.388672 0)"/>
     <use xlink:href="#DejaVuSerif-6d" transform="translate(158.007812 0)"/>
     <use xlink:href="#DejaVuSerif-61" transform="translate(252.832031 0)"/>
     <use xlink:href="#DejaVuSerif-2d" transform="translate(312.451172 0)"/>
     <use xlink:href="#DejaVuSerif-33" transform="translate(346.240234 0)"/>
     <use xlink:href="#DejaVuSerif-2e" transform="translate(409.863281 0)"/>
     <use xlink:href="#DejaVuSerif-31" transform="translate(441.650391 0)"/>
     <use xlink:href="#DejaVuSerif-2d" transform="translate(505.273438 0)"/>
     <use xlink:href="#DejaVuSerif-38" transform="translate(539.0625 0)"/>
     <use xlink:href="#DejaVuSerif-42" transform="translate(602.685547 0)"/>
     <use xlink:href="#DejaVuSerif-20" transform="translate(676.171875 0)"/>
     <use xlink:href="#DejaVuSerif-28" transform="translate(707.958984 0)"/>
     <use xlink:href="#DejaVuSerif-4f" transform="translate(746.972656 0)"/>
     <use xlink:href="#DejaVuSerif-6c" transform="translate(828.955078 0)"/>
     <use xlink:href="#DejaVuSerif-6c" transform="translate(860.9375 0)"/>
     <use xlink:href="#DejaVuSerif-61" transform="translate(892.919922 0)"/>
     <use xlink:href="#DejaVuSerif-6d" transform="translate(952.539062 0)"/>
     <use xlink:href="#DejaVuSerif-61" transform="translate(1047.363281 0)"/>
     <use xlink:href="#DejaVuSerif-29" transform="translate(1106.982422 0)"/>
    </g>
   </g>
   <g id="line2d_9">
    <path d="M 109.343281 81.961372 
L 378.165628 55.115554 
" clip-path="url(#p51de1954bc)" style="fill: none; stroke: #009e73; stroke-width: 1.2; stroke-linecap: round"/>
    <defs>
     <path id="m4e7c30479b" d="M 0 2.5 
C 0.663008 2.5 1.29895 2.236584 1.767767 1.767767 
C 2.236584 1.29895 2.5 0.663008 2.5 0 
C 2.5 -0.663008 2.236584 -1.29895 1.767767 -1.767767 
C 1.29895 -2.236584 0.663008 -2.5 0 -2.5 
C -0.663008 -2.5 -1.29895 -2.236584 -1.767767 -1.767767 
C -2.236584 -1.29895 -2.5 -0.663008 -2.5 0 
C -2.5 0.663008 -2.236584 1.29895 -1.767767 1.767767 
C -1.29895 2.236584 -0.663008 2.5 0 2.5 
z
" style="stroke: #009e73"/>
    </defs>
    <g clip-path="url(#p51de1954bc)">
     <use xlink:href="#m4e7c30479b" x="109.343281" y="81.961372" style="fill: #009e73; stroke: #009e73"/>
     <use xlink:href="#m4e7c30479b" x="378.165628" y="55.115554" style="fill: #009e73; stroke: #009e73"/>
    </g>
   </g>
   <g id="text_12">
    <!-- Mistral-7B (Ollama) -->
    <g style="fill: #009e73" transform="translate(34.921094 81.961372) scale(0.07 -0.07)">
     <defs>
      <path id="DejaVuSerif-4d" d="M 353 0 
L 353 331 
L 947 331 
L 947 4331 
L 319 4331 
L 319 4666 
L 1678 4666 
L 3316 1344 
L 4953 4666 
L 6228 4666 
L 6228 4331 
L 5606 4331 
L 5606 331 
L 6203 331 
L 6203 0 
L 4378 0 
L 4378 331 
L 4972 331 
L 4972 3938 
L 3372 684 
L 2931 684 
L 1331 3938 
L 1331 331 
L 1925 331 
L 1925 0 
L 353 0 
z
" transform="scale(0.015625)"/>
      <path id="DejaVuSerif-37" d="M 3609 4347 
L 1784 0 
L 1319 0 
L 3059 4153 
L 903 4153 
L 903 3578 
L 538 3578 
L 538 4666 
L 3609 4666 
L 3609 4347 
z
" transform="scale(0.015625)"/>
     </defs>
     <use xlink:href="#DejaVuSerif-4d"/>
     <use xlink:href="#DejaVuSerif-69" transform="translate(102.392578 0)"/>
     <use xlink:href="#DejaVuSerif-73" transform="translate(134.375 0)"/>
     <use xlink:href="#DejaVuSerif-74" transform="translate(185.693359 0)"/>
     <use xlink:href="#DejaVuSerif-72" transform="translate(225.878906 0)"/>
     <use xlink:href="#DejaVuSerif-61" transform="translate(273.681641 0)"/>
     <use xlink:href="#DejaVuSerif-6c" transform="translate(333.300781 0)"/>
     <use xlink:href="#DejaVuSerif-2d" transform="translate(365.283203 0)"/>
     <use xlink:href="#DejaVuSerif-37" transform="translate(399.072266 0)"/>
     <use xlink:href="#DejaVuSerif-42" transform="translate(462.695312 0)"/>
     <use xlink:href="#DejaVuSerif-20" transform="translate(536.181641 0)"/>
     <use xlink:href="#DejaVuSerif-28" transform="translate(567.96875 0)"/>
     <use xlink:href="#DejaVuSerif-4f" transform="translate(606.982422 0)"/>
     <use xlink:href="#DejaVuSerif-6c" transform="translate(688.964844 0)"/>
     <use xlink:href="#DejaVuSerif-6c" transform="translate(720.947266 0)"/>
     <use xlink:href="#DejaVuSerif-61" transform="translate(752.929688 0)"/>
     <use xlink:href="#DejaVuSerif-6d" transform="translate(812.548828 0)"/>
     <use xlink:href="#DejaVuSerif-61" transform="translate(907.373047 0)"/>
     <use xlink:href="#DejaVuSerif-29" transform="translate(966.992188 0)"/>
    </g>
   </g>
   <g id="line2d_10">
    <path d="M 109.343281 135.653009 
L 378.165628 108.80719 
" clip-path="url(#p51de1954bc)" style="fill: none; stroke: #cc79a7; stroke-width: 1.2; stroke-linecap: round"/>
    <defs>
     <path id="ma04c5056c9" d="M 0 2.5 
C 0.663008 2.5 1.29895 2.236584 1.767767 1.767767 
C 2.236584 1.29895 2.5 0.663008 2.5 0 
C 2.5 -0.663008 2.236584 -1.29895 1.767767 -1.767767 
C 1.29895 -2.236584 0.663008 -2.5 0 -2.5 
C -0.663008 -2.5 -1.29895 -2.236584 -1.767767 -1.767767 
C -2.236584 -1.29895 -2.5 -0.663008 -2.5 0 
C -2.5 0.663008 -2.236584 1.29895 -1.767767 1.767767 
C -1.29895 2.236584 -0.663008 2.5 0 2.5 
z
" style="stroke: #cc79a7"/>
    </defs>
    <g clip-path="url(#p51de1954bc)">
     <use xlink:href="#ma04c5056c9" x="109.343281" y="135.653009" style="fill: #cc79a7; stroke: #cc79a7"/>
     <use xlink:href="#ma04c5056c9" x="378.165628" y="108.80719" style="fill: #cc79a7; stroke: #cc79a7"/>
    </g>
   </g>
   <g id="text_13">
    <!-- Phi-3-Mini (vLLM) -->
    <g style="fill: #cc79a7" transform="translate(40.44125 135.653009) scale(0.07 -0.07)">
     <defs>
      <path id="DejaVuSerif-50" d="M 1581 2375 
L 2406 2375 
Q 2872 2375 3115 2626 
Q 3359 2878 3359 3353 
Q 3359 3831 3115 4081 
Q 2872 4331 2406 4331 
L 1581 4331 
L 1581 2375 
z
M 353 0 
L 353 331 
L 947 331 
L 947 4331 
L 353 4331 
L 353 4666 
L 2559 4666 
Q 3259 4666 3668 4311 
Q 4078 3956 4078 3353 
Q 4078 2753 3668 2397 
Q 3259 2041 2559 2041 
L 1581 2041 
L 1581 331 
L 2303 331 
L 2303 0 
L 353 0 
z
" transform="scale(0.015625)"/>
      <path id="DejaVuSerif-68" d="M 263 0 
L 263 331 
L 781 331 
L 781 4531 
L 231 4531 
L 231 4863 
L 1356 4863 
L 1356 2731 
Q 1516 3069 1770 3241 
Q 2025 3413 2363 3413 
Q 2913 3413 3172 3097 
Q 3431 2781 3431 2113 
L 3431 331 
L 3944 331 
L 3944 0 
L 2356 0 
L 2356 331 
L 2853 331 
L 2853 1931 
Q 2853 2541 2704 2764 
Q 2556 2988 2175 2988 
Q 1775 2988 1565 2697 
Q 1356 2406 1356 1850 
L 1356 331 
L 1856 331 
L 1856 0 
L 263 0 
z
" transform="scale(0.015625)"/>
      <path id="DejaVuSerif-76" d="M 1581 0 
L 359 2988 
L -19 2988 
L -19 3322 
L 1509 3322 
L 1509 2988 
L 978 2988 
L 1913 703 
L 2847 2988 
L 2350 2988 
L 2350 3322 
L 3597 3322 
L 3597 2988 
L 3225 2988 
L 2003 0 
L 1581 0 
z
" transform="scale(0.015625)"/>
     </defs>
     <use xlink:href="#DejaVuSerif-50"/>
     <use xlink:href="#DejaVuSerif-68" transform="translate(67.285156 0)"/>
     <use xlink:href="#DejaVuSerif-69" transform="translate(131.689453 0)"/>
     <use xlink:href="#DejaVuSerif-2d" transform="translate(163.671875 0)"/>
     <use xlink:href="#DejaVuSerif-33" transform="translate(197.460938 0)"/>
     <use xlink:href="#DejaVuSerif-2d" transform="translate(261.083984 0)"/>
     <use xlink:href="#DejaVuSerif-4d" transform="translate(294.873047 0)"/>
     <use xlink:href="#DejaVuSerif-69" transform="translate(397.265625 0)"/>
     <use xlink:href="#DejaVuSerif-6e" transform="translate(429.248047 0)"/>
     <use xlink:href="#DejaVuSerif-69" transform="translate(493.652344 0)"/>
     <use xlink:href="#DejaVuSerif-20" transform="translate(525.634766 0)"/>
     <use xlink:href="#DejaVuSerif-28" transform="translate(557.421875 0)"/>
     <use xlink:href="#DejaVuSerif-76" transform="translate(596.435547 0)"/>
     <use xlink:href="#DejaVuSerif-4c" transform="translate(652.929688 0)"/>
     <use xlink:href="#DejaVuSerif-4c" transform="translate(719.335938 0)"/>
     <use xlink:href="#DejaVuSerif-4d" transform="translate(785.742188 0)"/>
     <use xlink:href="#DejaVuSerif-29" transform="translate(888.134766 0)"/>
    </g>
   </g>
   <g id="line2d_11">
    <path d="M 109.343281 55.115554 
L 378.165628 81.961372 
" clip-path="url(#p51de1954bc)" style="fill: none; stroke: #56b4e9; stroke-width: 1.2; stroke-linecap: round"/>
    <defs>
     <path id="mbde6391ec8" d="M 0 2.5 
C 0.663008 2.5 1.29895 2.236584 1.767767 1.767767 
C 2.236584 1.29895 2.5 0.663008 2.5 0 
C 2.5 -0.663008 2.236584 -1.29895 1.767767 -1.767767 
C 1.29895 -2.236584 0.663008 -2.5 0 -2.5 
C -0.663008 -2.5 -1.29895 -2.236584 -1.767767 -1.767767 
C -2.236584 -1.29895 -2.5 -0.663008 -2.5 0 
C -2.5 0.663008 -2.236584 1.29895 -1.767767 1.767767 
C -1.29895 2.236584 -0.663008 2.5 0 2.5 
z
" style="stroke: #56b4e9"/>
    </defs>
    <g clip-path="url(#p51de1954bc)">
     <use xlink:href="#mbde6391ec8" x="109.343281" y="55.115554" style="fill: #56b4e9; stroke: #56b4e9"/>
     <use xlink:href="#mbde6391ec8" x="378.165628" y="81.961372" style="fill: #56b4e9; stroke: #56b4e9"/>
    </g>
   </g>
   <g id="text_14">
    <!-- Qwen-2.5-7B (Ollama) -->
    <g style="fill: #56b4e9" transform="translate(26.610781 55.115554) scale(0.07 -0.07)">
     <defs>
      <path id="DejaVuSerif-51" d="M 2700 -91 
Q 1628 -91 993 567 
Q 359 1225 359 2328 
Q 359 2894 529 3339 
Q 700 3784 1050 4134 
Q 1356 4441 1750 4595 
Q 2144 4750 2625 4750 
Q 3641 4750 4266 4084 
Q 4891 3419 4891 2328 
Q 4891 1403 4422 773 
Q 3953 144 3128 -38 
Q 3297 -247 3539 -347 
Q 3781 -447 4122 -447 
L 4219 -447 
L 4219 -1025 
Q 3691 -1000 3314 -767 
Q 2938 -534 2700 -91 
z
M 2625 244 
Q 3391 244 3781 770 
Q 4172 1297 4172 2328 
Q 4172 3363 3781 3889 
Q 3391 4416 2625 4416 
Q 1856 4416 1465 3889 
Q 1075 3363 1075 2328 
Q 1075 1297 1465 770 
Q 1856 244 2625 244 
z
" transform="scale(0.015625)"/>
      <path id="DejaVuSerif-77" d="M 3072 3322 
L 3922 728 
L 4672 2988 
L 4191 2988 
L 4191 3322 
L 5394 3322 
L 5394 2988 
L 5025 2988 
L 4038 0 
L 3559 0 
L 2741 2484 
L 1919 0 
L 1459 0 
L 475 2988 
L 103 2988 
L 103 3322 
L 1606 3322 
L 1606 2988 
L 1069 2988 
L 1813 728 
L 2669 3322 
L 3072 3322 
z
" transform="scale(0.015625)"/>
     </defs>
     <use xlink:href="#DejaVuSerif-51"/>
     <use xlink:href="#DejaVuSerif-77" transform="translate(81.982422 0)"/>
     <use xlink:href="#DejaVuSerif-65" transform="translate(167.578125 0)"/>
     <use xlink:href="#DejaVuSerif-6e" transform="translate(226.757812 0)"/>
     <use xlink:href="#DejaVuSerif-2d" transform="translate(291.162109 0)"/>
     <use xlink:href="#DejaVuSerif-32" transform="translate(324.951172 0)"/>
     <use xlink:href="#DejaVuSerif-2e" transform="translate(388.574219 0)"/>
     <use xlink:href="#DejaVuSerif-35" transform="translate(420.361328 0)"/>
     <use xlink:href="#DejaVuSerif-2d" transform="translate(483.984375 0)"/>
     <use xlink:href="#DejaVuSerif-37" transform="translate(517.773438 0)"/>
     <use xlink:href="#DejaVuSerif-42" transform="translate(581.396484 0)"/>
     <use xlink:href="#DejaVuSerif-20" transform="translate(654.882812 0)"/>
     <use xlink:href="#DejaVuSerif-28" transform="translate(686.669922 0)"/>
     <use xlink:href="#DejaVuSerif-4f" transform="translate(725.683594 0)"/>
     <use xlink:href="#DejaVuSerif-6c" transform="translate(807.666016 0)"/>
     <use xlink:href="#DejaVuSerif-6c" transform="translate(839.648438 0)"/>
     <use xlink:href="#DejaVuSerif-61" transform="translate(871.630859 0)"/>
     <use xlink:href="#DejaVuSerif-6d" transform="translate(931.25 0)"/>
     <use xlink:href="#DejaVuSerif-61" transform="translate(1026.074219 0)"/>
     <use xlink:href="#DejaVuSerif-29" transform="translate(1085.693359 0)"/>
    </g>
   </g>
   <g id="line2d_12">
    <path d="M 109.343281 162.498827 
L 378.165628 162.498827 
" clip-path="url(#p51de1954bc)" style="fill: none; stroke: #d55e00; stroke-width: 1.2; stroke-linecap: round"/>
    <defs>
     <path id="mbb810dbaa0" d="M 0 2.5 
C 0.663008 2.5 1.29895 2.236584 1.767767 1.767767 
C 2.236584 1.29895 2.5 0.663008 2.5 0 
C 2.5 -0.663008 2.236584 -1.29895 1.767767 -1.767767 
C 1.29895 -2.236584 0.663008 -2.5 0 -2.5 
C -0.663008 -2.5 -1.29895 -2.236584 -1.767767 -1.767767 
C -2.236584 -1.29895 -2.5 -0.663008 -2.5 0 
C -2.5 0.663008 -2.236584 1.29895 -1.767767 1.767767 
C -1.29895 2.236584 -0.663008 2.5 0 2.5 
z
" style="stroke: #d55e00"/>
    </defs>
    <g clip-path="url(#p51de1954bc)">
     <use xlink:href="#mbb810dbaa0" x="109.343281" y="162.498827" style="fill: #d55e00; stroke: #d55e00"/>
     <use xlink:href="#mbb810dbaa0" x="378.165628" y="162.498827" style="fill: #d55e00; stroke: #d55e00"/>
    </g>
   </g>
   <g id="text_15">
    <!-- TinyLlama-1.1B (llama.cpp) -->
    <g style="fill: #d55e00" transform="translate(7.2 162.498827) scale(0.07 -0.07)">
     <defs>
      <path id="DejaVuSerif-54" d="M 1222 0 
L 1222 331 
L 1819 331 
L 1819 4294 
L 447 4294 
L 447 3566 
L 63 3566 
L 63 4666 
L 4206 4666 
L 4206 3566 
L 3822 3566 
L 3822 4294 
L 2450 4294 
L 2450 331 
L 3047 331 
L 3047 0 
L 1222 0 
z
" transform="scale(0.015625)"/>
      <path id="DejaVuSerif-70" d="M 1313 1825 
L 1313 1497 
Q 1313 897 1542 583 
Q 1772 269 2209 269 
Q 2650 269 2876 622 
Q 3103 975 3103 1663 
Q 3103 2353 2876 2703 
Q 2650 3053 2209 3053 
Q 1772 3053 1542 2737 
Q 1313 2422 1313 1825 
z
M 738 2988 
L 184 2988 
L 184 3322 
L 1313 3322 
L 1313 2803 
Q 1481 3116 1742 3264 
Q 2003 3413 2388 3413 
Q 3000 3413 3387 2928 
Q 3775 2444 3775 1663 
Q 3775 881 3387 395 
Q 3000 -91 2388 -91 
Q 2003 -91 1742 57 
Q 1481 206 1313 519 
L 1313 -997 
L 1856 -997 
L 1856 -1331 
L 184 -1331 
L 184 -997 
L 738 -997 
L 738 2988 
z
" transform="scale(0.015625)"/>
     </defs>
     <use xlink:href="#DejaVuSerif-54"/>
     <use xlink:href="#DejaVuSerif-69" transform="translate(66.699219 0)"/>
     <use xlink:href="#DejaVuSerif-6e" transform="translate(98.681641 0)"/>
     <use xlink:href="#DejaVuSerif-79" transform="translate(163.085938 0)"/>
     <use xlink:href="#DejaVuSerif-4c" transform="translate(219.580078 0)"/>
     <use xlink:href="#DejaVuSerif-6c" transform="translate(285.986328 0)"/>
     <use xlink:href="#DejaVuSerif-61" transform="translate(317.96875 0)"/>
     <use xlink:href="#DejaVuSerif-6d" transform="translate(377.587891 0)"/>
     <use xlink:href="#DejaVuSerif-61" transform="translate(472.412109 0)"/>
     <use xlink:href="#DejaVuSerif-2d" transform="translate(532.03125 0)"/>
     <use xlink:href="#DejaVuSerif-31" transform="translate(565.820312 0)"/>
     <use xlink:href="#DejaVuSerif-2e" transform="translate(629.443359 0)"/>
     <use xlink:href="#DejaVuSerif-31" transform="translate(661.230469 0)"/>
     <use xlink:href="#DejaVuSerif-42" transform="translate(724.853516 0)"/>
     <use xlink:href="#DejaVuSerif-20" transform="translate(798.339844 0)"/>
     <use xlink:href="#DejaVuSerif-28" transform="translate(830.126953 0)"/>
     <use xlink:href="#DejaVuSerif-6c" transform="translate(869.140625 0)"/>
     <use xlink:href="#DejaVuSerif-6c" transform="translate(901.123047 0)"/>
     <use xlink:href="#DejaVuSerif-61" transform="translate(933.105469 0)"/>
     <use xlink:href="#DejaVuSerif-6d" transform="translate(992.724609 0)"/>
     <use xlink:href="#DejaVuSerif-61" transform="translate(1087.548828 0)"/>
     <use xlink:href="#DejaVuSerif-2e" transform="translate(1147.167969 0)"/>
     <use xlink:href="#DejaVuSerif-63" transform="translate(1178.955078 0)"/>
     <use xlink:href="#DejaVuSerif-70" transform="translate(1234.960938 0)"/>
     <use xlink:href="#DejaVuSerif-70" transform="translate(1298.974609 0)"/>
     <use xlink:href="#DejaVuSerif-29" transform="translate(1362.988281 0)"/>
    </g>
   </g>
   <g id="text_16">
    <!-- Success Rate vs. Multi-Dimensional Reliability Ranking -->
    <g style="fill: #262626" transform="translate(71.882033 15.558281) scale(0.11 -0.11)">
     <defs>
      <path id="DejaVuSerif-Bold-53" d="M 494 225 
L 494 1331 
L 891 1331 
Q 981 806 1318 547 
Q 1656 288 2253 288 
Q 2738 288 2991 472 
Q 3244 656 3244 1013 
Q 3244 1294 3072 1450 
Q 2900 1606 2363 1741 
L 1663 1913 
Q 978 2088 700 2398 
Q 422 2709 422 3284 
Q 422 3978 883 4364 
Q 1344 4750 2175 4750 
Q 2584 4750 3026 4681 
Q 3469 4613 3944 4475 
L 3944 3444 
L 3547 3444 
Q 3456 3925 3150 4148 
Q 2844 4372 2278 4372 
Q 1816 4372 1580 4211 
Q 1344 4050 1344 3731 
Q 1344 3441 1506 3289 
Q 1669 3138 2303 2975 
L 3003 2803 
Q 3653 2641 3945 2297 
Q 4238 1953 4238 1350 
Q 4238 644 3750 276 
Q 3263 -91 2316 -91 
Q 1859 -91 1409 -12 
Q 959 66 494 225 
z
" transform="scale(0.015625)"/>
      <path id="DejaVuSerif-Bold-75" d="M 3963 3322 
L 3963 378 
L 4434 378 
L 4434 0 
L 2853 0 
L 2853 469 
Q 2656 172 2400 40 
Q 2144 -91 1753 -91 
Q 1194 -91 908 239 
Q 622 569 622 1209 
L 622 2944 
L 147 2944 
L 147 3322 
L 1728 3322 
L 1728 1381 
Q 1728 763 1831 595 
Q 1934 428 2209 428 
Q 2544 428 2698 675 
Q 2853 922 2853 1459 
L 2853 2944 
L 2450 2944 
L 2450 3322 
L 3963 3322 
z
" transform="scale(0.015625)"/>
      <path id="DejaVuSerif-Bold-63" d="M 3609 1038 
Q 3491 469 3123 189 
Q 2756 -91 2125 -91 
Q 1238 -91 750 368 
Q 263 828 263 1663 
Q 263 2488 744 2950 
Q 1225 3413 2081 3413 
Q 2428 3413 2781 3347 
Q 3134 3281 3500 3150 
L 3500 2228 
L 3150 2228 
Q 3100 2650 2903 2854 
Q 2706 3059 2350 3059 
Q 1888 3059 1692 2746 
Q 1497 2434 1497 1663 
Q 1497 909 1687 586 
Q 1878 263 2309 263 
Q 2644 263 2845 463 
Q 3047 663 3091 1038 
L 3609 1038 
z
" transform="scale(0.015625)"/>
      <path id="DejaVuSerif-Bold-65" d="M 2566 1875 
Q 2566 2531 2444 2795 
Q 2322 3059 2028 3059 
Q 1744 3059 1620 2800 
Q 1497 2541 1497 1931 
L 1497 1875 
L 2566 1875 
z
M 3781 1503 
L 1497 1503 
L 1497 1478 
Q 1497 834 1690 548 
Q 1884 263 2316 263 
Q 2675 263 2897 453 
Q 3119 644 3181 1006 
L 3700 1006 
Q 3566 441 3166 175 
Q 2766 -91 2047 -91 
Q 1184 -91 723 364 
Q 263 819 263 1663 
Q 263 2488 734 2950 
Q 1206 3413 2047 3413 
Q 2872 3413 3312 2927 
Q 3753 2441 3781 1503 
z
" transform="scale(0.015625)"/>
      <path id="DejaVuSerif-Bold-73" d="M 300 97 
L 300 1025 
L 653 1025 
Q 697 653 931 458 
Q 1166 263 1569 263 
Q 1906 263 2086 380 
Q 2266 497 2266 716 
Q 2266 916 2152 1025 
Q 2038 1134 1709 1216 
L 1253 1331 
Q 738 1459 506 1698 
Q 275 1938 275 2344 
Q 275 2884 650 3148 
Q 1025 3413 1806 3413 
Q 2100 3413 2433 3364 
Q 2766 3316 3169 3213 
L 3169 2375 
L 2816 2375 
Q 2788 2716 2573 2887 
Q 2359 3059 1959 3059 
Q 1622 3059 1448 2951 
Q 1275 2844 1275 2638 
Q 1275 2469 1375 2372 
Q 1475 2275 1734 2209 
L 2188 2094 
Q 2841 1928 3091 1684 
Q 3341 1441 3341 1006 
Q 3341 444 2939 176 
Q 2538 -91 1691 -91 
Q 1381 -91 1034 -44 
Q 688 3 300 97 
z
" transform="scale(0.015625)"/>
      <path id="DejaVuSerif-Bold-20" transform="scale(0.015625)"/>
      <path id="DejaVuSerif-Bold-52" d="M 3397 2278 
Q 3675 2238 3865 2094 
Q 4056 1950 4197 1678 
L 4878 378 
L 5356 378 
L 5356 0 
L 3822 0 
L 3078 1409 
Q 2863 1847 2711 1967 
Q 2559 2088 2291 2088 
L 2100 2088 
L 2100 378 
L 2700 378 
L 2700 0 
L 300 0 
L 300 378 
L 897 378 
L 897 4288 
L 300 4288 
L 300 4666 
L 2963 4666 
Q 3775 4666 4217 4339 
Q 4659 4013 4659 3413 
Q 4659 2925 4345 2642 
Q 4031 2359 3397 2278 
z
M 2100 2463 
L 2509 2463 
Q 2947 2463 3183 2700 
Q 3419 2938 3419 3378 
Q 3419 3819 3183 4053 
Q 2947 4288 2509 4288 
L 2100 4288 
L 2100 2463 
z
" transform="scale(0.015625)"/>
      <path id="DejaVuSerif-Bold-61" d="M 3525 2041 
L 3525 378 
L 4000 378 
L 4000 0 
L 2419 0 
L 2419 422 
Q 2200 159 1931 34 
Q 1663 -91 1319 -91 
Q 809 -91 536 182 
Q 263 456 263 966 
Q 263 1525 655 1803 
Q 1047 2081 1838 2081 
L 2419 2081 
L 2419 2278 
Q 2419 2681 2228 2873 
Q 2038 3066 1638 3066 
Q 1306 3066 1126 2930 
Q 947 2794 872 2484 
L 519 2484 
L 519 3200 
Q 816 3306 1134 3359 
Q 1453 3413 1806 3413 
Q 2697 3413 3111 3081 
Q 3525 2750 3525 2041 
z
M 2419 1044 
L 2419 1709 
L 2003 1709 
Q 1694 1709 1528 1540 
Q 1363 1372 1363 1056 
Q 1363 741 1483 584 
Q 1603 428 1850 428 
Q 2106 428 2262 597 
Q 2419 766 2419 1044 
z
" transform="scale(0.015625)"/>
      <path id="DejaVuSerif-Bold-74" d="M 634 2944 
L 153 2944 
L 153 3322 
L 634 3322 
L 634 4353 
L 1741 4353 
L 1741 3322 
L 2663 3322 
L 2663 2944 
L 1741 2944 
L 1741 909 
Q 1741 475 1809 369 
Q 1878 263 2059 263 
Q 2259 263 2356 397 
Q 2453 531 2459 813 
L 2925 813 
Q 2897 313 2651 111 
Q 2406 -91 1806 -91 
Q 1122 -91 878 123 
Q 634 338 634 909 
L 634 2944 
z
" transform="scale(0.015625)"/>
      <path id="DejaVuSerif-Bold-76" d="M 1428 0 
L 250 2944 
L -116 2944 
L -116 3322 
L 1791 3322 
L 1791 2944 
L 1388 2944 
L 2228 844 
L 3066 2944 
L 2631 2944 
L 2631 3322 
L 3878 3322 
L 3878 2944 
L 3494 2944 
L 2316 0 
L 1428 0 
z
" transform="scale(0.015625)"/>
      <path id="DejaVuSerif-Bold-2e" d="M 519 506 
Q 519 750 694 925 
Q 869 1100 1113 1100 
Q 1359 1100 1534 925 
Q 1709 750 1709 506 
Q 1709 259 1534 84 
Q 1359 -91 1113 -91 
Q 869 -91 694 84 
Q 519 259 519 506 
z
" transform="scale(0.015625)"/>
      <path id="DejaVuSerif-Bold-4d" d="M 269 0 
L 269 378 
L 863 378 
L 863 4288 
L 269 4288 
L 269 4666 
L 2194 4666 
L 3525 1672 
L 4863 4666 
L 6784 4666 
L 6784 4288 
L 6188 4288 
L 6188 378 
L 6784 378 
L 6784 0 
L 4384 0 
L 4384 378 
L 4978 378 
L 4978 3938 
L 3531 684 
L 2741 684 
L 1300 3938 
L 1300 378 
L 1894 378 
L 1894 0 
L 269 0 
z
" transform="scale(0.015625)"/>
      <path id="DejaVuSerif-Bold-6c" d="M 1797 378 
L 2272 378 
L 2272 0 
L 219 0 
L 219 378 
L 691 378 
L 691 4488 
L 219 4488 
L 219 4863 
L 1797 4863 
L 1797 378 
z
" transform="scale(0.015625)"/>
      <path id="DejaVuSerif-Bold-69" d="M 588 4263 
Q 588 4516 763 4689 
Q 938 4863 1191 4863 
Q 1438 4863 1611 4689 
Q 1784 4516 1784 4263 
Q 1784 4016 1611 3842 
Q 1438 3669 1191 3669 
Q 938 3669 763 3841 
Q 588 4013 588 4263 
z
M 1797 378 
L 2272 378 
L 2272 0 
L 219 0 
L 219 378 
L 691 378 
L 691 2944 
L 219 2944 
L 219 3322 
L 1797 3322 
L 1797 378 
z
" transform="scale(0.015625)"/>
      <path id="DejaVuSerif-Bold-2d" d="M 347 2138 
L 2309 2138 
L 2309 1294 
L 347 1294 
L 347 2138 
z
" transform="scale(0.015625)"/>
      <path id="DejaVuSerif-Bold-44" d="M 2100 378 
L 2534 378 
Q 3266 378 3605 847 
Q 3944 1316 3944 2338 
Q 3944 3353 3606 3820 
Q 3269 4288 2534 4288 
L 2100 4288 
L 2100 378 
z
M 300 0 
L 300 378 
L 897 378 
L 897 4288 
L 300 4288 
L 300 4666 
L 2694 4666 
Q 3950 4666 4615 4066 
Q 5281 3466 5281 2338 
Q 5281 1203 4614 601 
Q 3947 0 2694 0 
L 300 0 
z
" transform="scale(0.015625)"/>
      <path id="DejaVuSerif-Bold-6d" d="M 3884 2778 
Q 4116 3109 4384 3261 
Q 4653 3413 5013 3413 
Q 5584 3413 5867 3089 
Q 6150 2766 6150 2113 
L 6150 378 
L 6625 378 
L 6625 0 
L 4647 0 
L 4647 378 
L 5044 378 
L 5044 1947 
Q 5044 2569 4948 2731 
Q 4853 2894 4594 2894 
Q 4300 2894 4137 2667 
Q 3975 2441 3975 2022 
L 3975 378 
L 4372 378 
L 4372 0 
L 2472 0 
L 2472 378 
L 2869 378 
L 2869 1947 
Q 2869 2569 2772 2731 
Q 2675 2894 2419 2894 
Q 2122 2894 1959 2667 
Q 1797 2441 1797 2022 
L 1797 378 
L 2194 378 
L 2194 0 
L 219 0 
L 219 378 
L 691 378 
L 691 2944 
L 219 2944 
L 219 3322 
L 1797 3322 
L 1797 2853 
Q 1991 3144 2241 3278 
Q 2491 3413 2834 3413 
Q 3241 3413 3494 3258 
Q 3747 3103 3884 2778 
z
" transform="scale(0.015625)"/>
      <path id="DejaVuSerif-Bold-6e" d="M 219 0 
L 219 378 
L 691 378 
L 691 2944 
L 219 2944 
L 219 3322 
L 1797 3322 
L 1797 2853 
Q 1997 3150 2253 3281 
Q 2509 3413 2900 3413 
Q 3459 3413 3745 3083 
Q 4031 2753 4031 2113 
L 4031 378 
L 4506 378 
L 4506 0 
L 2522 0 
L 2522 378 
L 2925 378 
L 2925 2144 
Q 2925 2566 2817 2730 
Q 2709 2894 2444 2894 
Q 2109 2894 1953 2648 
Q 1797 2403 1797 1869 
L 1797 378 
L 2203 378 
L 2203 0 
L 219 0 
z
" transform="scale(0.015625)"/>
      <path id="DejaVuSerif-Bold-6f" d="M 2138 263 
Q 2488 263 2630 563 
Q 2772 863 2772 1663 
Q 2772 2463 2631 2761 
Q 2491 3059 2138 3059 
Q 1784 3059 1640 2757 
Q 1497 2456 1497 1663 
Q 1497 869 1640 566 
Q 1784 263 2138 263 
z
M 2138 -91 
Q 1259 -91 761 376 
Q 263 844 263 1663 
Q 263 2484 761 2948 
Q 1259 3413 2138 3413 
Q 3019 3413 3516 2948 
Q 4013 2484 4013 1663 
Q 4013 844 3514 376 
Q 3016 -91 2138 -91 
z
" transform="scale(0.015625)"/>
      <path id="DejaVuSerif-Bold-62" d="M 622 378 
L 622 4488 
L 147 4488 
L 147 4863 
L 1728 4863 
L 1728 2900 
Q 1869 3159 2106 3286 
Q 2344 3413 2694 3413 
Q 3403 3413 3811 2945 
Q 4219 2478 4219 1663 
Q 4219 847 3811 378 
Q 3403 -91 2694 -91 
Q 2344 -91 2106 36 
Q 1869 163 1728 422 
L 1728 0 
L 147 0 
L 147 378 
L 622 378 
z
M 1728 1497 
Q 1728 916 1876 656 
Q 2025 397 2356 397 
Q 2697 397 2836 672 
Q 2975 947 2975 1663 
Q 2975 2378 2836 2651 
Q 2697 2925 2356 2925 
Q 2025 2925 1876 2665 
Q 1728 2406 1728 1825 
L 1728 1497 
z
" transform="scale(0.015625)"/>
      <path id="DejaVuSerif-Bold-79" d="M 1997 -750 
Q 1847 -1116 1634 -1269 
Q 1422 -1422 1063 -1422 
Q 909 -1422 721 -1387 
Q 534 -1353 313 -1288 
L 313 -594 
L 666 -597 
Q 675 -838 779 -953 
Q 884 -1069 1094 -1069 
Q 1297 -1069 1422 -958 
Q 1547 -847 1672 -538 
L 1722 -422 
L 275 2944 
L -84 2944 
L -84 3322 
L 1831 3322 
L 1831 2944 
L 1434 2944 
L 2278 978 
L 3066 2944 
L 2625 2944 
L 2625 3322 
L 3872 3322 
L 3872 2944 
L 3469 2944 
L 1997 -750 
z
" transform="scale(0.015625)"/>
      <path id="DejaVuSerif-Bold-6b" d="M 2216 0 
L 219 0 
L 219 378 
L 691 378 
L 691 4488 
L 219 4488 
L 219 4863 
L 1797 4863 
L 1797 1741 
L 3138 2944 
L 2741 2944 
L 2741 3322 
L 4256 3322 
L 4256 2944 
L 3641 2944 
L 2784 2175 
L 4184 378 
L 4544 378 
L 4544 0 
L 2638 0 
L 2638 378 
L 3028 378 
L 2106 1563 
L 1797 1288 
L 1797 378 
L 2216 378 
L 2216 0 
z
" transform="scale(0.015625)"/>
      <path id="DejaVuSerif-Bold-67" d="M 3853 2944 
L 3853 44 
Q 3853 -656 3354 -1039 
Q 2856 -1422 1947 -1422 
Q 1616 -1422 1275 -1370 
Q 934 -1319 575 -1216 
L 575 -422 
L 928 -422 
Q 975 -750 1192 -909 
Q 1409 -1069 1813 -1069 
Q 2325 -1069 2536 -823 
Q 2747 -578 2747 44 
L 2747 422 
Q 2606 163 2367 36 
Q 2128 -91 1778 -91 
Q 1072 -91 667 378 
Q 263 847 263 1663 
Q 263 2481 667 2947 
Q 1072 3413 1778 3413 
Q 2128 3413 2367 3286 
Q 2606 3159 2747 2900 
L 2747 3322 
L 4325 3322 
L 4325 2944 
L 3853 2944 
z
M 2747 1825 
Q 2747 2406 2597 2665 
Q 2447 2925 2119 2925 
Q 1775 2925 1636 2651 
Q 1497 2378 1497 1663 
Q 1497 947 1637 672 
Q 1778 397 2119 397 
Q 2447 397 2597 656 
Q 2747 916 2747 1497 
L 2747 1825 
z
" transform="scale(0.015625)"/>
     </defs>
     <use xlink:href="#DejaVuSerif-Bold-53"/>
     <use xlink:href="#DejaVuSerif-Bold-75" transform="translate(72.216797 0)"/>
     <use xlink:href="#DejaVuSerif-Bold-63" transform="translate(144.921875 0)"/>
     <use xlink:href="#DejaVuSerif-Bold-63" transform="translate(205.810547 0)"/>
     <use xlink:href="#DejaVuSerif-Bold-65" transform="translate(266.699219 0)"/>
     <use xlink:href="#DejaVuSerif-Bold-73" transform="translate(330.322266 0)"/>
     <use xlink:href="#DejaVuSerif-Bold-73" transform="translate(386.621094 0)"/>
     <use xlink:href="#DejaVuSerif-Bold-20" transform="translate(442.919922 0)"/>
     <use xlink:href="#DejaVuSerif-Bold-52" transform="translate(477.734375 0)"/>
     <use xlink:href="#DejaVuSerif-Bold-61" transform="translate(563.089844 0)"/>
     <use xlink:href="#DejaVuSerif-Bold-74" transform="translate(627.884766 0)"/>
     <use xlink:href="#DejaVuSerif-Bold-65" transform="translate(674.076172 0)"/>
     <use xlink:href="#DejaVuSerif-Bold-20" transform="translate(737.699219 0)"/>
     <use xlink:href="#DejaVuSerif-Bold-76" transform="translate(772.513672 0)"/>
     <use xlink:href="#DejaVuSerif-Bold-73" transform="translate(830.619141 0)"/>
     <use xlink:href="#DejaVuSerif-Bold-2e" transform="translate(886.917969 0)"/>
     <use xlink:href="#DejaVuSerif-Bold-20" transform="translate(921.732422 0)"/>
     <use xlink:href="#DejaVuSerif-Bold-4d" transform="translate(956.546875 0)"/>
     <use xlink:href="#DejaVuSerif-Bold-75" transform="translate(1067.240234 0)"/>
     <use xlink:href="#DejaVuSerif-Bold-6c" transform="translate(1139.945312 0)"/>
     <use xlink:href="#DejaVuSerif-Bold-74" transform="translate(1177.933594 0)"/>
     <use xlink:href="#DejaVuSerif-Bold-69" transform="translate(1224.125 0)"/>
     <use xlink:href="#DejaVuSerif-Bold-2d" transform="translate(1262.113281 0)"/>
     <use xlink:href="#DejaVuSerif-Bold-44" transform="translate(1303.617188 0)"/>
     <use xlink:href="#DejaVuSerif-Bold-69" transform="translate(1390.335938 0)"/>
     <use xlink:href="#DejaVuSerif-Bold-6d" transform="translate(1428.324219 0)"/>
     <use xlink:href="#DejaVuSerif-Bold-65" transform="translate(1534.134766 0)"/>
     <use xlink:href="#DejaVuSerif-Bold-6e" transform="translate(1597.757812 0)"/>
     <use xlink:href="#DejaVuSerif-Bold-73" transform="translate(1670.462891 0)"/>
     <use xlink:href="#DejaVuSerif-Bold-69" transform="translate(1726.761719 0)"/>
     <use xlink:href="#DejaVuSerif-Bold-6f" transform="translate(1764.75 0)"/>
     <use xlink:href="#DejaVuSerif-Bold-6e" transform="translate(1831.449219 0)"/>
     <use xlink:href="#DejaVuSerif-Bold-61" transform="translate(1904.154297 0)"/>
     <use xlink:href="#DejaVuSerif-Bold-6c" transform="translate(1968.949219 0)"/>
     <use xlink:href="#DejaVuSerif-Bold-20" transform="translate(2006.9375 0)"/>
     <use xlink:href="#DejaVuSerif-Bold-52" transform="translate(2041.751953 0)"/>
     <use xlink:href="#DejaVuSerif-Bold-65" transform="translate(2124.857422 0)"/>
     <use xlink:href="#DejaVuSerif-Bold-6c" transform="translate(2188.480469 0)"/>
     <use xlink:href="#DejaVuSerif-Bold-69" transform="translate(2226.46875 0)"/>
     <use xlink:href="#DejaVuSerif-Bold-61" transform="translate(2264.457031 0)"/>
     <use xlink:href="#DejaVuSerif-Bold-62" transform="translate(2329.251953 0)"/>
     <use xlink:href="#DejaVuSerif-Bold-69" transform="translate(2399.173828 0)"/>
     <use xlink:href="#DejaVuSerif-Bold-6c" transform="translate(2437.162109 0)"/>
     <use xlink:href="#DejaVuSerif-Bold-69" transform="translate(2475.150391 0)"/>
     <use xlink:href="#DejaVuSerif-Bold-74" transform="translate(2513.138672 0)"/>
     <use xlink:href="#DejaVuSerif-Bold-79" transform="translate(2559.330078 0)"/>
     <use xlink:href="#DejaVuSerif-Bold-20" transform="translate(2617.435547 0)"/>
     <use xlink:href="#DejaVuSerif-Bold-52" transform="translate(2652.25 0)"/>
     <use xlink:href="#DejaVuSerif-Bold-61" transform="translate(2737.605469 0)"/>
     <use xlink:href="#DejaVuSerif-Bold-6e" transform="translate(2802.400391 0)"/>
     <use xlink:href="#DejaVuSerif-Bold-6b" transform="translate(2875.105469 0)"/>
     <use xlink:href="#DejaVuSerif-Bold-69" transform="translate(2944.392578 0)"/>
     <use xlink:href="#DejaVuSerif-Bold-6e" transform="translate(2982.380859 0)"/>
     <use xlink:href="#DejaVuSerif-Bold-67" transform="translate(3055.085938 0)"/>
    </g>
   </g>
   <g id="legend_1">
    <g id="patch_5">
     <path d="M 150.940183 59.481875 
L 386.706746 59.481875 
Q 388.106746 59.481875 388.106746 58.081875 
L 388.106746 26.458281 
Q 388.106746 25.058281 386.706746 25.058281 
L 150.940183 25.058281 
Q 149.540183 25.058281 149.540183 26.458281 
L 149.540183 58.081875 
Q 149.540183 59.481875 150.940183 59.481875 
z
" style="fill: #ffffff; opacity: 0.9; stroke: #cccccc; stroke-linejoin: miter"/>
    </g>
    <g id="line2d_13">
     <path d="M 153.040183 31.427187 
L 160.040183 31.427187 
L 167.040183 31.427187 
" style="fill: none; stroke: #0072b2; stroke-width: 1.2; stroke-linecap: round"/>
     <g>
      <use xlink:href="#m4269da3f49" x="160.040183" y="31.427187" style="fill: #0072b2; stroke: #0072b2"/>
     </g>
    </g>
    <g id="text_17">
     <!-- Gemma-2-9B (Ollama) -->
     <g style="fill: #262626" transform="translate(172.640183 33.877187) scale(0.07 -0.07)">
      <use xlink:href="#DejaVuSerif-47"/>
      <use xlink:href="#DejaVuSerif-65" transform="translate(79.882812 0)"/>
      <use xlink:href="#DejaVuSerif-6d" transform="translate(139.0625 0)"/>
      <use xlink:href="#DejaVuSerif-6d" transform="translate(233.886719 0)"/>
      <use xlink:href="#DejaVuSerif-61" transform="translate(328.710938 0)"/>
      <use xlink:href="#DejaVuSerif-2d" transform="translate(388.330078 0)"/>
      <use xlink:href="#DejaVuSerif-32" transform="translate(422.119141 0)"/>
      <use xlink:href="#DejaVuSerif-2d" transform="translate(485.742188 0)"/>
      <use xlink:href="#DejaVuSerif-39" transform="translate(519.53125 0)"/>
      <use xlink:href="#DejaVuSerif-42" transform="translate(583.154297 0)"/>
      <use xlink:href="#DejaVuSerif-20" transform="translate(656.640625 0)"/>
      <use xlink:href="#DejaVuSerif-28" transform="translate(688.427734 0)"/>
      <use xlink:href="#DejaVuSerif-4f" transform="translate(727.441406 0)"/>
      <use xlink:href="#DejaVuSerif-6c" transform="translate(809.423828 0)"/>
      <use xlink:href="#DejaVuSerif-6c" transform="translate(841.40625 0)"/>
      <use xlink:href="#DejaVuSerif-61" transform="translate(873.388672 0)"/>
      <use xlink:href="#DejaVuSerif-6d" transform="translate(933.007812 0)"/>
      <use xlink:href="#DejaVuSerif-61" transform="translate(1027.832031 0)"/>
      <use xlink:href="#DejaVuSerif-29" transform="translate(1087.451172 0)"/>
     </g>
    </g>
    <g id="line2d_14">
     <path d="M 153.040183 41.701875 
L 160.040183 41.701875 
L 167.040183 41.701875 
" style="fill: none; stroke: #e69f00; stroke-width: 1.2; stroke-linecap: round"/>
     <g>
      <use xlink:href="#m3ba1707f78" x="160.040183" y="41.701875" style="fill: #e69f00; stroke: #e69f00"/>
     </g>
    </g>
    <g id="text_18">
     <!-- Llama-3.1-8B (Ollama) -->
     <g style="fill: #262626" transform="translate(172.640183 44.151875) scale(0.07 -0.07)">
      <use xlink:href="#DejaVuSerif-4c"/>
      <use xlink:href="#DejaVuSerif-6c" transform="translate(66.40625 0)"/>
      <use xlink:href="#DejaVuSerif-61" transform="translate(98.388672 0)"/>
      <use xlink:href="#DejaVuSerif-6d" transform="translate(158.007812 0)"/>
      <use xlink:href="#DejaVuSerif-61" transform="translate(252.832031 0)"/>
      <use xlink:href="#DejaVuSerif-2d" transform="translate(312.451172 0)"/>
      <use xlink:href="#DejaVuSerif-33" transform="translate(346.240234 0)"/>
      <use xlink:href="#DejaVuSerif-2e" transform="translate(409.863281 0)"/>
      <use xlink:href="#DejaVuSerif-31" transform="translate(441.650391 0)"/>
      <use xlink:href="#DejaVuSerif-2d" transform="translate(505.273438 0)"/>
      <use xlink:href="#DejaVuSerif-38" transform="translate(539.0625 0)"/>
      <use xlink:href="#DejaVuSerif-42" transform="translate(602.685547 0)"/>
      <use xlink:href="#DejaVuSerif-20" transform="translate(676.171875 0)"/>
      <use xlink:href="#DejaVuSerif-28" transform="translate(707.958984 0)"/>
      <use xlink:href="#DejaVuSerif-4f" transform="translate(746.972656 0)"/>
      <use xlink:href="#DejaVuSerif-6c" transform="translate(828.955078 0)"/>
      <use xlink:href="#DejaVuSerif-6c" transform="translate(860.9375 0)"/>
      <use xlink:href="#DejaVuSerif-61" transform="translate(892.919922 0)"/>
      <use xlink:href="#DejaVuSerif-6d" transform="translate(952.539062 0)"/>
      <use xlink:href="#DejaVuSerif-61" transform="translate(1047.363281 0)"/>
      <use xlink:href="#DejaVuSerif-29" transform="translate(1106.982422 0)"/>
     </g>
    </g>
    <g id="line2d_15">
     <path d="M 153.040183 51.976562 
L 160.040183 51.976562 
L 167.040183 51.976562 
" style="fill: none; stroke: #009e73; stroke-width: 1.2; stroke-linecap: round"/>
     <g>
      <use xlink:href="#m4e7c30479b" x="160.040183" y="51.976562" style="fill: #009e73; stroke: #009e73"/>
     </g>
    </g>
    <g id="text_19">
     <!-- Mistral-7B (Ollama) -->
     <g style="fill: #262626" transform="translate(172.640183 54.426562) scale(0.07 -0.07)">
      <use xlink:href="#DejaVuSerif-4d"/>
      <use xlink:href="#DejaVuSerif-69" transform="translate(102.392578 0)"/>
      <use xlink:href="#DejaVuSerif-73" transform="translate(134.375 0)"/>
      <use xlink:href="#DejaVuSerif-74" transform="translate(185.693359 0)"/>
      <use xlink:href="#DejaVuSerif-72" transform="translate(225.878906 0)"/>
      <use xlink:href="#DejaVuSerif-61" transform="translate(273.681641 0)"/>
      <use xlink:href="#DejaVuSerif-6c" transform="translate(333.300781 0)"/>
      <use xlink:href="#DejaVuSerif-2d" transform="translate(365.283203 0)"/>
      <use xlink:href="#DejaVuSerif-37" transform="translate(399.072266 0)"/>
      <use xlink:href="#DejaVuSerif-42" transform="translate(462.695312 0)"/>
      <use xlink:href="#DejaVuSerif-20" transform="translate(536.181641 0)"/>
      <use xlink:href="#DejaVuSerif-28" transform="translate(567.96875 0)"/>
      <use xlink:href="#DejaVuSerif-4f" transform="translate(606.982422 0)"/>
      <use xlink:href="#DejaVuSerif-6c" transform="translate(688.964844 0)"/>
      <use xlink:href="#DejaVuSerif-6c" transform="translate(720.947266 0)"/>
      <use xlink:href="#DejaVuSerif-61" transform="translate(752.929688 0)"/>
      <use xlink:href="#DejaVuSerif-6d" transform="translate(812.548828 0)"/>
      <use xlink:href="#DejaVuSerif-61" transform="translate(907.373047 0)"/>
      <use xlink:href="#DejaVuSerif-29" transform="translate(966.992188 0)"/>
     </g>
    </g>
    <g id="line2d_16">
     <path d="M 266.863464 31.427187 
L 273.863464 31.427187 
L 280.863464 31.427187 
" style="fill: none; stroke: #cc79a7; stroke-width: 1.2; stroke-linecap: round"/>
     <g>
      <use xlink:href="#ma04c5056c9" x="273.863464" y="31.427187" style="fill: #cc79a7; stroke: #cc79a7"/>
     </g>
    </g>
    <g id="text_20">
     <!-- Phi-3-Mini (vLLM) -->
     <g style="fill: #262626" transform="translate(286.463464 33.877187) scale(0.07 -0.07)">
      <use xlink:href="#DejaVuSerif-50"/>
      <use xlink:href="#DejaVuSerif-68" transform="translate(67.285156 0)"/>
      <use xlink:href="#DejaVuSerif-69" transform="translate(131.689453 0)"/>
      <use xlink:href="#DejaVuSerif-2d" transform="translate(163.671875 0)"/>
      <use xlink:href="#DejaVuSerif-33" transform="translate(197.460938 0)"/>
      <use xlink:href="#DejaVuSerif-2d" transform="translate(261.083984 0)"/>
      <use xlink:href="#DejaVuSerif-4d" transform="translate(294.873047 0)"/>
      <use xlink:href="#DejaVuSerif-69" transform="translate(397.265625 0)"/>
      <use xlink:href="#DejaVuSerif-6e" transform="translate(429.248047 0)"/>
      <use xlink:href="#DejaVuSerif-69" transform="translate(493.652344 0)"/>
      <use xlink:href="#DejaVuSerif-20" transform="translate(525.634766 0)"/>
      <use xlink:href="#DejaVuSerif-28" transform="translate(557.421875 0)"/>
      <use xlink:href="#DejaVuSerif-76" transform="translate(596.435547 0)"/>
      <use xlink:href="#DejaVuSerif-4c" transform="translate(652.929688 0)"/>
      <use xlink:href="#DejaVuSerif-4c" transform="translate(719.335938 0)"/>
      <use xlink:href="#DejaVuSerif-4d" transform="translate(785.742188 0)"/>
      <use xlink:href="#DejaVuSerif-29" transform="translate(888.134766 0)"/>
     </g>
    </g>
    <g id="line2d_17">
     <path d="M 266.863464 41.701875 
L 273.863464 41.701875 
L 280.863464 41.701875 
" style="fill: none; stroke: #56b4e9; stroke-width: 1.2; stroke-linecap: round"/>
     <g>
      <use xlink:href="#mbde6391ec8" x="273.863464" y="41.701875" style="fill: #56b4e9; stroke: #56b4e9"/>
     </g>
    </g>
    <g id="text_21">
     <!-- Qwen-2.5-7B (Ollama) -->
     <g style="fill: #262626" transform="translate(286.463464 44.151875) scale(0.07 -0.07)">
      <use xlink:href="#DejaVuSerif-51"/>
      <use xlink:href="#DejaVuSerif-77" transform="translate(81.982422 0)"/>
      <use xlink:href="#DejaVuSerif-65" transform="translate(167.578125 0)"/>
      <use xlink:href="#DejaVuSerif-6e" transform="translate(226.757812 0)"/>
      <use xlink:href="#DejaVuSerif-2d" transform="translate(291.162109 0)"/>
      <use xlink:href="#DejaVuSerif-32" transform="translate(324.951172 0)"/>
      <use xlink:href="#DejaVuSerif-2e" transform="translate(388.574219 0)"/>
      <use xlink:href="#DejaVuSerif-35" transform="translate(420.361328 0)"/>
      <use xlink:href="#DejaVuSerif-2d" transform="translate(483.984375 0)"/>
      <use xlink:href="#DejaVuSerif-37" transform="translate(517.773438 0)"/>
      <use xlink:href="#DejaVuSerif-42" transform="translate(581.396484 0)"/>
      <use xlink:href="#DejaVuSerif-20" transform="translate(654.882812 0)"/>
      <use xlink:href="#DejaVuSerif-28" transform="translate(686.669922 0)"/>
      <use xlink:href="#DejaVuSerif-4f" transform="translate(725.683594 0)"/>
      <use xlink:href="#DejaVuSerif-6c" transform="translate(807.666016 0)"/>
      <use xlink:href="#DejaVuSerif-6c" transform="translate(839.648438 0)"/>
      <use xlink:href="#DejaVuSerif-61" transform="translate(871.630859 0)"/>
      <use xlink:href="#DejaVuSerif-6d" transform="translate(931.25 0)"/>
      <use xlink:href="#DejaVuSerif-61" transform="translate(1026.074219 0)"/>
      <use xlink:href="#DejaVuSerif-29" transform="translate(1085.693359 0)"/>
     </g>
    </g>
    <g id="line2d_18">
     <path d="M 266.863464 51.976562 
L 273.863464 51.976562 
L 280.863464 51.976562 
" style="fill: none; stroke: #d55e00; stroke-width: 1.2; stroke-linecap: round"/>
     <g>
      <use xlink:href="#mbb810dbaa0" x="273.863464" y="51.976562" style="fill: #d55e00; stroke: #d55e00"/>
     </g>
    </g>
    <g id="text_22">
     <!-- TinyLlama-1.1B (llama.cpp) -->
     <g style="fill: #262626" transform="translate(286.463464 54.426562) scale(0.07 -0.07)">
      <use xlink:href="#DejaVuSerif-54"/>
      <use xlink:href="#DejaVuSerif-69" transform="translate(66.699219 0)"/>
      <use xlink:href="#DejaVuSerif-6e" transform="translate(98.681641 0)"/>
      <use xlink:href="#DejaVuSerif-79" transform="translate(163.085938 0)"/>
      <use xlink:href="#DejaVuSerif-4c" transform="translate(219.580078 0)"/>
      <use xlink:href="#DejaVuSerif-6c" transform="translate(285.986328 0)"/>
      <use xlink:href="#DejaVuSerif-61" transform="translate(317.96875 0)"/>
      <use xlink:href="#DejaVuSerif-6d" transform="translate(377.587891 0)"/>
      <use xlink:href="#DejaVuSerif-61" transform="translate(472.412109 0)"/>
      <use xlink:href="#DejaVuSerif-2d" transform="translate(532.03125 0)"/>
      <use xlink:href="#DejaVuSerif-31" transform="translate(565.820312 0)"/>
      <use xlink:href="#DejaVuSerif-2e" transform="translate(629.443359 0)"/>
      <use xlink:href="#DejaVuSerif-31" transform="translate(661.230469 0)"/>
      <use xlink:href="#DejaVuSerif-42" transform="translate(724.853516 0)"/>
      <use xlink:href="#DejaVuSerif-20" transform="translate(798.339844 0)"/>
      <use xlink:href="#DejaVuSerif-28" transform="translate(830.126953 0)"/>
      <use xlink:href="#DejaVuSerif-6c" transform="translate(869.140625 0)"/>
      <use xlink:href="#DejaVuSerif-6c" transform="translate(901.123047 0)"/>
      <use xlink:href="#DejaVuSerif-61" transform="translate(933.105469 0)"/>
      <use xlink:href="#DejaVuSerif-6d" transform="translate(992.724609 0)"/>
      <use xlink:href="#DejaVuSerif-61" transform="translate(1087.548828 0)"/>
      <use xlink:href="#DejaVuSerif-2e" transform="translate(1147.167969 0)"/>
      <use xlink:href="#DejaVuSerif-63" transform="translate(1178.955078 0)"/>
      <use xlink:href="#DejaVuSerif-70" transform="translate(1234.960938 0)"/>
      <use xlink:href="#DejaVuSerif-70" transform="translate(1298.974609 0)"/>
      <use xlink:href="#DejaVuSerif-29" transform="translate(1362.988281 0)"/>
     </g>
    </g>
   </g>
  </g>
 </g>
 <defs>
  <clipPath id="p51de1954bc">
   <rect x="95.902164" y="21.558281" width="295.704582" height="147.652"/>
  </clipPath>
 </defs>
</svg>
